<svg width="14" height="14" viewBox="0 0 14 14" fill="none" xmlns="http://www.w3.org/2000/svg">
<path d="M12.9002 4.57561C12.1658 1.42049 9.34708 0 6.87106 0C6.87106 0 6.87106 0 6.86407 0C4.39503 0 1.56929 1.41366 0.834879 4.56878C0.0165347 8.09268 2.22676 11.0771 4.22716 12.9551C4.96857 13.6517 5.91982 14 6.87106 14C7.8223 14 8.77354 13.6517 9.50795 12.9551C11.5083 11.0771 13.7186 8.09951 12.9002 4.57561ZM6.87106 7.99707C5.65404 7.99707 4.66781 7.03415 4.66781 5.84585C4.66781 4.65756 5.65404 3.69463 6.87106 3.69463C8.08809 3.69463 9.0743 4.65756 9.0743 5.84585C9.0743 7.03415 8.08809 7.99707 6.87106 7.99707Z" fill="#E93933"/>
</svg>
