<svg width="23" height="23" viewBox="0 0 23 23" fill="none" xmlns="http://www.w3.org/2000/svg">
<path d="M10.7894 21.5787C4.84206 21.5787 0 16.7367 0 10.7894C0 4.84206 4.84206 0 10.7894 0C16.7367 0 21.5787 4.84206 21.5787 10.7894C21.5787 16.7367 16.7367 21.5787 10.7894 21.5787ZM10.7894 1.57893C5.70521 1.57893 1.57893 5.71573 1.57893 10.7894C1.57893 15.863 5.70521 19.9998 10.7894 19.9998C15.8735 19.9998 19.9998 15.863 19.9998 10.7894C19.9998 5.71573 15.8735 1.57893 10.7894 1.57893Z" fill="white"/>
<path d="M21.8423 22.6313C21.6423 22.6313 21.4423 22.5576 21.2844 22.3997L19.1792 20.2944C18.8739 19.9892 18.8739 19.4839 19.1792 19.1787C19.4844 18.8734 19.9897 18.8734 20.2949 19.1787L22.4002 21.2839C22.7055 21.5892 22.7055 22.0944 22.4002 22.3997C22.2423 22.5576 22.0423 22.6313 21.8423 22.6313Z" fill="white"/>
</svg>
